<svg xmlns="http://www.w3.org/2000/svg" viewBox="0 0 48 48">
  <rect width="48" height="48" rx="4" fill="#ffffff"/>
  <path d="M7 30 24 21l17 9-17 9z" fill="#52a832" stroke="#176b31" stroke-width="2"/>
  <path d="M24 21v18M15.5 25.5v18M32.5 25.5v18M7 30l17 9 17-9" fill="none" stroke="#fff" stroke-width="1.5"/>
  <path d="M8 22 24 14l16 8-16 8z" fill="#1368d5" stroke="#094da8" stroke-width="2"/>
  <path d="m10 22 6-3 5 3 6-4 5 3 6-2" fill="none" stroke="#a9d7ff" stroke-width="2"/>
  <path d="M8 13 24 5l16 8-16 8z" fill="#f47a1f" stroke="#b53f11" stroke-width="2"/>
  <path d="m10 13 6-3 5 3 6-4 5 3 6-2" fill="none" stroke="#ffd159" stroke-width="2"/>
</svg>
